G04 MADE WITH FRITZING*
G04 WWW.FRITZING.ORG*
G04 DOUBLE SIDED*
G04 HOLES PLATED*
G04 CONTOUR ON CENTER OF CONTOUR VECTOR*
%ASAXBY*%
%FSLAX23Y23*%
%MOIN*%
%OFA0B0*%
%SFA1.0B1.0*%
%ADD10C,0.010000*%
%ADD11C,0.008000*%
%ADD12R,0.001000X0.001000*%
%LNSILK1*%
G90*
G70*
G54D10*
X217Y431D02*
X417Y431D01*
D02*
X417Y431D02*
X417Y365D01*
D02*
X417Y365D02*
X217Y365D01*
D02*
X217Y365D02*
X217Y431D01*
G54D11*
D02*
X118Y128D02*
X189Y128D01*
D02*
X189Y128D02*
X189Y88D01*
D02*
X189Y324D02*
X189Y285D01*
D02*
X189Y285D02*
X118Y285D01*
G54D12*
X0Y476D02*
X654Y476D01*
X0Y475D02*
X654Y475D01*
X0Y474D02*
X654Y474D01*
X0Y473D02*
X654Y473D01*
X0Y472D02*
X654Y472D01*
X0Y471D02*
X654Y471D01*
X0Y470D02*
X654Y470D01*
X0Y469D02*
X654Y469D01*
X0Y468D02*
X7Y468D01*
X647Y468D02*
X654Y468D01*
X0Y467D02*
X7Y467D01*
X647Y467D02*
X654Y467D01*
X0Y466D02*
X7Y466D01*
X647Y466D02*
X654Y466D01*
X0Y465D02*
X7Y465D01*
X647Y465D02*
X654Y465D01*
X0Y464D02*
X7Y464D01*
X647Y464D02*
X654Y464D01*
X0Y463D02*
X7Y463D01*
X647Y463D02*
X654Y463D01*
X0Y462D02*
X7Y462D01*
X647Y462D02*
X654Y462D01*
X0Y461D02*
X7Y461D01*
X647Y461D02*
X654Y461D01*
X0Y460D02*
X7Y460D01*
X647Y460D02*
X654Y460D01*
X0Y459D02*
X7Y459D01*
X647Y459D02*
X654Y459D01*
X0Y458D02*
X7Y458D01*
X647Y458D02*
X654Y458D01*
X0Y457D02*
X7Y457D01*
X647Y457D02*
X654Y457D01*
X0Y456D02*
X7Y456D01*
X647Y456D02*
X654Y456D01*
X0Y455D02*
X7Y455D01*
X647Y455D02*
X654Y455D01*
X0Y454D02*
X7Y454D01*
X647Y454D02*
X654Y454D01*
X0Y453D02*
X7Y453D01*
X647Y453D02*
X654Y453D01*
X0Y452D02*
X7Y452D01*
X647Y452D02*
X654Y452D01*
X0Y451D02*
X7Y451D01*
X647Y451D02*
X654Y451D01*
X0Y450D02*
X7Y450D01*
X647Y450D02*
X654Y450D01*
X0Y449D02*
X7Y449D01*
X647Y449D02*
X654Y449D01*
X0Y448D02*
X7Y448D01*
X647Y448D02*
X654Y448D01*
X0Y447D02*
X7Y447D01*
X647Y447D02*
X654Y447D01*
X0Y446D02*
X7Y446D01*
X647Y446D02*
X654Y446D01*
X0Y445D02*
X7Y445D01*
X647Y445D02*
X654Y445D01*
X0Y444D02*
X7Y444D01*
X647Y444D02*
X654Y444D01*
X0Y443D02*
X7Y443D01*
X647Y443D02*
X654Y443D01*
X0Y442D02*
X7Y442D01*
X647Y442D02*
X654Y442D01*
X0Y441D02*
X7Y441D01*
X647Y441D02*
X654Y441D01*
X0Y440D02*
X7Y440D01*
X647Y440D02*
X654Y440D01*
X0Y439D02*
X7Y439D01*
X647Y439D02*
X654Y439D01*
X0Y438D02*
X7Y438D01*
X647Y438D02*
X654Y438D01*
X0Y437D02*
X7Y437D01*
X647Y437D02*
X654Y437D01*
X0Y436D02*
X7Y436D01*
X647Y436D02*
X654Y436D01*
X0Y435D02*
X7Y435D01*
X647Y435D02*
X654Y435D01*
X0Y434D02*
X7Y434D01*
X647Y434D02*
X654Y434D01*
X0Y433D02*
X7Y433D01*
X647Y433D02*
X654Y433D01*
X0Y432D02*
X7Y432D01*
X647Y432D02*
X654Y432D01*
X0Y431D02*
X7Y431D01*
X647Y431D02*
X654Y431D01*
X0Y430D02*
X7Y430D01*
X647Y430D02*
X654Y430D01*
X0Y429D02*
X7Y429D01*
X647Y429D02*
X654Y429D01*
X0Y428D02*
X7Y428D01*
X647Y428D02*
X654Y428D01*
X0Y427D02*
X7Y427D01*
X647Y427D02*
X654Y427D01*
X0Y426D02*
X7Y426D01*
X647Y426D02*
X654Y426D01*
X0Y425D02*
X7Y425D01*
X647Y425D02*
X654Y425D01*
X0Y424D02*
X7Y424D01*
X647Y424D02*
X654Y424D01*
X0Y423D02*
X7Y423D01*
X647Y423D02*
X654Y423D01*
X0Y422D02*
X7Y422D01*
X647Y422D02*
X654Y422D01*
X0Y421D02*
X7Y421D01*
X299Y421D02*
X329Y421D01*
X352Y421D02*
X373Y421D01*
X647Y421D02*
X654Y421D01*
X0Y420D02*
X7Y420D01*
X248Y420D02*
X252Y420D01*
X297Y420D02*
X329Y420D01*
X349Y420D02*
X376Y420D01*
X647Y420D02*
X654Y420D01*
X0Y419D02*
X7Y419D01*
X247Y419D02*
X253Y419D01*
X296Y419D02*
X329Y419D01*
X348Y419D02*
X377Y419D01*
X647Y419D02*
X654Y419D01*
X0Y418D02*
X7Y418D01*
X247Y418D02*
X253Y418D01*
X296Y418D02*
X329Y418D01*
X347Y418D02*
X378Y418D01*
X647Y418D02*
X654Y418D01*
X0Y417D02*
X7Y417D01*
X247Y417D02*
X253Y417D01*
X296Y417D02*
X329Y417D01*
X346Y417D02*
X379Y417D01*
X647Y417D02*
X654Y417D01*
X0Y416D02*
X7Y416D01*
X247Y416D02*
X253Y416D01*
X296Y416D02*
X329Y416D01*
X346Y416D02*
X379Y416D01*
X647Y416D02*
X654Y416D01*
X0Y415D02*
X7Y415D01*
X247Y415D02*
X253Y415D01*
X271Y415D02*
X271Y415D01*
X296Y415D02*
X329Y415D01*
X346Y415D02*
X379Y415D01*
X647Y415D02*
X654Y415D01*
X0Y414D02*
X7Y414D01*
X247Y414D02*
X253Y414D01*
X269Y414D02*
X273Y414D01*
X296Y414D02*
X302Y414D01*
X323Y414D02*
X329Y414D01*
X346Y414D02*
X352Y414D01*
X373Y414D02*
X379Y414D01*
X647Y414D02*
X654Y414D01*
X0Y413D02*
X7Y413D01*
X247Y413D02*
X253Y413D01*
X268Y413D02*
X273Y413D01*
X296Y413D02*
X301Y413D01*
X323Y413D02*
X329Y413D01*
X346Y413D02*
X352Y413D01*
X373Y413D02*
X379Y413D01*
X647Y413D02*
X654Y413D01*
X0Y412D02*
X7Y412D01*
X247Y412D02*
X253Y412D01*
X268Y412D02*
X274Y412D01*
X297Y412D02*
X300Y412D01*
X323Y412D02*
X329Y412D01*
X346Y412D02*
X352Y412D01*
X373Y412D02*
X379Y412D01*
X647Y412D02*
X654Y412D01*
X0Y411D02*
X7Y411D01*
X247Y411D02*
X253Y411D01*
X268Y411D02*
X274Y411D01*
X323Y411D02*
X329Y411D01*
X346Y411D02*
X352Y411D01*
X373Y411D02*
X379Y411D01*
X647Y411D02*
X654Y411D01*
X0Y410D02*
X7Y410D01*
X247Y410D02*
X253Y410D01*
X268Y410D02*
X274Y410D01*
X323Y410D02*
X329Y410D01*
X346Y410D02*
X352Y410D01*
X373Y410D02*
X379Y410D01*
X647Y410D02*
X654Y410D01*
X0Y409D02*
X7Y409D01*
X247Y409D02*
X253Y409D01*
X268Y409D02*
X274Y409D01*
X323Y409D02*
X329Y409D01*
X346Y409D02*
X352Y409D01*
X373Y409D02*
X379Y409D01*
X647Y409D02*
X654Y409D01*
X0Y408D02*
X7Y408D01*
X247Y408D02*
X253Y408D01*
X268Y408D02*
X274Y408D01*
X323Y408D02*
X329Y408D01*
X346Y408D02*
X352Y408D01*
X373Y408D02*
X379Y408D01*
X647Y408D02*
X654Y408D01*
X0Y407D02*
X7Y407D01*
X247Y407D02*
X253Y407D01*
X268Y407D02*
X274Y407D01*
X323Y407D02*
X329Y407D01*
X346Y407D02*
X352Y407D01*
X373Y407D02*
X379Y407D01*
X647Y407D02*
X654Y407D01*
X0Y406D02*
X7Y406D01*
X247Y406D02*
X253Y406D01*
X268Y406D02*
X274Y406D01*
X323Y406D02*
X329Y406D01*
X346Y406D02*
X352Y406D01*
X373Y406D02*
X379Y406D01*
X647Y406D02*
X654Y406D01*
X0Y405D02*
X7Y405D01*
X247Y405D02*
X253Y405D01*
X268Y405D02*
X274Y405D01*
X323Y405D02*
X329Y405D01*
X346Y405D02*
X352Y405D01*
X373Y405D02*
X379Y405D01*
X647Y405D02*
X654Y405D01*
X0Y404D02*
X7Y404D01*
X247Y404D02*
X253Y404D01*
X268Y404D02*
X274Y404D01*
X323Y404D02*
X329Y404D01*
X346Y404D02*
X352Y404D01*
X373Y404D02*
X379Y404D01*
X647Y404D02*
X654Y404D01*
X0Y403D02*
X7Y403D01*
X149Y403D02*
X216Y403D01*
X247Y403D02*
X253Y403D01*
X268Y403D02*
X274Y403D01*
X323Y403D02*
X329Y403D01*
X346Y403D02*
X352Y403D01*
X373Y403D02*
X379Y403D01*
X417Y403D02*
X464Y403D01*
X647Y403D02*
X654Y403D01*
X0Y402D02*
X7Y402D01*
X150Y402D02*
X216Y402D01*
X247Y402D02*
X253Y402D01*
X268Y402D02*
X274Y402D01*
X323Y402D02*
X329Y402D01*
X346Y402D02*
X352Y402D01*
X373Y402D02*
X379Y402D01*
X416Y402D02*
X464Y402D01*
X647Y402D02*
X654Y402D01*
X0Y401D02*
X7Y401D01*
X150Y401D02*
X216Y401D01*
X247Y401D02*
X253Y401D01*
X268Y401D02*
X274Y401D01*
X323Y401D02*
X329Y401D01*
X346Y401D02*
X352Y401D01*
X373Y401D02*
X379Y401D01*
X416Y401D02*
X464Y401D01*
X647Y401D02*
X654Y401D01*
X0Y400D02*
X7Y400D01*
X150Y400D02*
X216Y400D01*
X247Y400D02*
X253Y400D01*
X268Y400D02*
X274Y400D01*
X321Y400D02*
X329Y400D01*
X346Y400D02*
X352Y400D01*
X373Y400D02*
X379Y400D01*
X416Y400D02*
X464Y400D01*
X647Y400D02*
X654Y400D01*
X0Y399D02*
X7Y399D01*
X150Y399D02*
X216Y399D01*
X247Y399D02*
X253Y399D01*
X268Y399D02*
X274Y399D01*
X320Y399D02*
X329Y399D01*
X346Y399D02*
X352Y399D01*
X373Y399D02*
X379Y399D01*
X416Y399D02*
X463Y399D01*
X647Y399D02*
X654Y399D01*
X0Y398D02*
X7Y398D01*
X150Y398D02*
X216Y398D01*
X247Y398D02*
X253Y398D01*
X268Y398D02*
X274Y398D01*
X319Y398D02*
X328Y398D01*
X346Y398D02*
X352Y398D01*
X373Y398D02*
X379Y398D01*
X416Y398D02*
X463Y398D01*
X647Y398D02*
X654Y398D01*
X0Y397D02*
X7Y397D01*
X150Y397D02*
X216Y397D01*
X247Y397D02*
X253Y397D01*
X268Y397D02*
X274Y397D01*
X318Y397D02*
X328Y397D01*
X346Y397D02*
X352Y397D01*
X373Y397D02*
X379Y397D01*
X416Y397D02*
X463Y397D01*
X647Y397D02*
X654Y397D01*
X0Y396D02*
X7Y396D01*
X150Y396D02*
X216Y396D01*
X247Y396D02*
X253Y396D01*
X268Y396D02*
X274Y396D01*
X317Y396D02*
X326Y396D01*
X346Y396D02*
X352Y396D01*
X373Y396D02*
X379Y396D01*
X416Y396D02*
X464Y396D01*
X647Y396D02*
X654Y396D01*
X0Y395D02*
X7Y395D01*
X150Y395D02*
X216Y395D01*
X247Y395D02*
X253Y395D01*
X268Y395D02*
X274Y395D01*
X315Y395D02*
X325Y395D01*
X346Y395D02*
X352Y395D01*
X373Y395D02*
X379Y395D01*
X416Y395D02*
X464Y395D01*
X647Y395D02*
X654Y395D01*
X0Y394D02*
X7Y394D01*
X149Y394D02*
X216Y394D01*
X247Y394D02*
X253Y394D01*
X268Y394D02*
X274Y394D01*
X314Y394D02*
X324Y394D01*
X346Y394D02*
X352Y394D01*
X373Y394D02*
X379Y394D01*
X416Y394D02*
X464Y394D01*
X647Y394D02*
X654Y394D01*
X0Y393D02*
X7Y393D01*
X247Y393D02*
X253Y393D01*
X268Y393D02*
X274Y393D01*
X313Y393D02*
X323Y393D01*
X346Y393D02*
X352Y393D01*
X373Y393D02*
X379Y393D01*
X647Y393D02*
X654Y393D01*
X0Y392D02*
X7Y392D01*
X247Y392D02*
X253Y392D01*
X268Y392D02*
X274Y392D01*
X312Y392D02*
X322Y392D01*
X346Y392D02*
X352Y392D01*
X373Y392D02*
X379Y392D01*
X647Y392D02*
X654Y392D01*
X0Y391D02*
X7Y391D01*
X247Y391D02*
X276Y391D01*
X311Y391D02*
X321Y391D01*
X346Y391D02*
X352Y391D01*
X373Y391D02*
X379Y391D01*
X647Y391D02*
X654Y391D01*
X0Y390D02*
X7Y390D01*
X247Y390D02*
X277Y390D01*
X310Y390D02*
X319Y390D01*
X346Y390D02*
X352Y390D01*
X373Y390D02*
X379Y390D01*
X647Y390D02*
X654Y390D01*
X0Y389D02*
X7Y389D01*
X247Y389D02*
X277Y389D01*
X309Y389D02*
X318Y389D01*
X346Y389D02*
X352Y389D01*
X373Y389D02*
X379Y389D01*
X647Y389D02*
X654Y389D01*
X0Y388D02*
X7Y388D01*
X247Y388D02*
X277Y388D01*
X309Y388D02*
X317Y388D01*
X346Y388D02*
X352Y388D01*
X373Y388D02*
X379Y388D01*
X647Y388D02*
X654Y388D01*
X0Y387D02*
X7Y387D01*
X247Y387D02*
X277Y387D01*
X309Y387D02*
X316Y387D01*
X346Y387D02*
X352Y387D01*
X373Y387D02*
X379Y387D01*
X647Y387D02*
X654Y387D01*
X0Y386D02*
X7Y386D01*
X247Y386D02*
X276Y386D01*
X309Y386D02*
X315Y386D01*
X346Y386D02*
X352Y386D01*
X373Y386D02*
X379Y386D01*
X647Y386D02*
X654Y386D01*
X0Y385D02*
X7Y385D01*
X247Y385D02*
X275Y385D01*
X309Y385D02*
X315Y385D01*
X346Y385D02*
X352Y385D01*
X373Y385D02*
X379Y385D01*
X647Y385D02*
X654Y385D01*
X0Y384D02*
X7Y384D01*
X268Y384D02*
X274Y384D01*
X309Y384D02*
X315Y384D01*
X346Y384D02*
X352Y384D01*
X373Y384D02*
X379Y384D01*
X647Y384D02*
X654Y384D01*
X0Y383D02*
X7Y383D01*
X268Y383D02*
X274Y383D01*
X309Y383D02*
X315Y383D01*
X346Y383D02*
X352Y383D01*
X373Y383D02*
X379Y383D01*
X647Y383D02*
X654Y383D01*
X0Y382D02*
X7Y382D01*
X268Y382D02*
X274Y382D01*
X309Y382D02*
X315Y382D01*
X346Y382D02*
X352Y382D01*
X373Y382D02*
X379Y382D01*
X647Y382D02*
X654Y382D01*
X0Y381D02*
X7Y381D01*
X268Y381D02*
X274Y381D01*
X309Y381D02*
X315Y381D01*
X346Y381D02*
X352Y381D01*
X373Y381D02*
X379Y381D01*
X647Y381D02*
X654Y381D01*
X0Y380D02*
X7Y380D01*
X268Y380D02*
X274Y380D01*
X309Y380D02*
X315Y380D01*
X346Y380D02*
X352Y380D01*
X373Y380D02*
X379Y380D01*
X647Y380D02*
X654Y380D01*
X0Y379D02*
X7Y379D01*
X268Y379D02*
X274Y379D01*
X309Y379D02*
X315Y379D01*
X346Y379D02*
X352Y379D01*
X373Y379D02*
X379Y379D01*
X647Y379D02*
X654Y379D01*
X0Y378D02*
X7Y378D01*
X268Y378D02*
X274Y378D01*
X309Y378D02*
X315Y378D01*
X346Y378D02*
X352Y378D01*
X373Y378D02*
X379Y378D01*
X647Y378D02*
X654Y378D01*
X0Y377D02*
X7Y377D01*
X268Y377D02*
X274Y377D01*
X309Y377D02*
X315Y377D01*
X346Y377D02*
X352Y377D01*
X373Y377D02*
X379Y377D01*
X647Y377D02*
X654Y377D01*
X0Y376D02*
X7Y376D01*
X268Y376D02*
X274Y376D01*
X309Y376D02*
X315Y376D01*
X346Y376D02*
X352Y376D01*
X373Y376D02*
X379Y376D01*
X647Y376D02*
X654Y376D01*
X0Y375D02*
X7Y375D01*
X268Y375D02*
X274Y375D01*
X309Y375D02*
X315Y375D01*
X346Y375D02*
X352Y375D01*
X373Y375D02*
X379Y375D01*
X647Y375D02*
X654Y375D01*
X0Y374D02*
X7Y374D01*
X268Y374D02*
X274Y374D01*
X309Y374D02*
X315Y374D01*
X346Y374D02*
X352Y374D01*
X373Y374D02*
X379Y374D01*
X647Y374D02*
X654Y374D01*
X0Y373D02*
X7Y373D01*
X268Y373D02*
X274Y373D01*
X309Y373D02*
X315Y373D01*
X346Y373D02*
X379Y373D01*
X647Y373D02*
X654Y373D01*
X0Y372D02*
X7Y372D01*
X268Y372D02*
X274Y372D01*
X309Y372D02*
X315Y372D01*
X346Y372D02*
X379Y372D01*
X647Y372D02*
X654Y372D01*
X0Y371D02*
X7Y371D01*
X268Y371D02*
X274Y371D01*
X309Y371D02*
X315Y371D01*
X346Y371D02*
X379Y371D01*
X647Y371D02*
X654Y371D01*
X0Y370D02*
X7Y370D01*
X268Y370D02*
X274Y370D01*
X309Y370D02*
X315Y370D01*
X347Y370D02*
X378Y370D01*
X647Y370D02*
X654Y370D01*
X0Y369D02*
X7Y369D01*
X268Y369D02*
X273Y369D01*
X310Y369D02*
X315Y369D01*
X348Y369D02*
X377Y369D01*
X647Y369D02*
X654Y369D01*
X0Y368D02*
X7Y368D01*
X269Y368D02*
X273Y368D01*
X310Y368D02*
X314Y368D01*
X349Y368D02*
X376Y368D01*
X647Y368D02*
X654Y368D01*
X0Y367D02*
X7Y367D01*
X271Y367D02*
X271Y367D01*
X312Y367D02*
X312Y367D01*
X352Y367D02*
X373Y367D01*
X647Y367D02*
X654Y367D01*
X0Y366D02*
X7Y366D01*
X647Y366D02*
X654Y366D01*
X0Y365D02*
X7Y365D01*
X647Y365D02*
X654Y365D01*
X0Y364D02*
X7Y364D01*
X647Y364D02*
X654Y364D01*
X0Y363D02*
X7Y363D01*
X647Y363D02*
X654Y363D01*
X0Y362D02*
X7Y362D01*
X647Y362D02*
X654Y362D01*
X0Y361D02*
X7Y361D01*
X647Y361D02*
X654Y361D01*
X0Y360D02*
X7Y360D01*
X647Y360D02*
X654Y360D01*
X0Y359D02*
X7Y359D01*
X647Y359D02*
X654Y359D01*
X0Y358D02*
X7Y358D01*
X647Y358D02*
X654Y358D01*
X0Y357D02*
X7Y357D01*
X647Y357D02*
X654Y357D01*
X0Y356D02*
X7Y356D01*
X647Y356D02*
X654Y356D01*
X0Y355D02*
X7Y355D01*
X647Y355D02*
X654Y355D01*
X0Y354D02*
X7Y354D01*
X647Y354D02*
X654Y354D01*
X0Y353D02*
X7Y353D01*
X647Y353D02*
X654Y353D01*
X0Y352D02*
X7Y352D01*
X647Y352D02*
X654Y352D01*
X0Y351D02*
X7Y351D01*
X647Y351D02*
X654Y351D01*
X0Y350D02*
X7Y350D01*
X647Y350D02*
X654Y350D01*
X0Y349D02*
X7Y349D01*
X647Y349D02*
X654Y349D01*
X0Y348D02*
X7Y348D01*
X647Y348D02*
X654Y348D01*
X0Y347D02*
X7Y347D01*
X647Y347D02*
X654Y347D01*
X0Y346D02*
X7Y346D01*
X647Y346D02*
X654Y346D01*
X0Y345D02*
X7Y345D01*
X647Y345D02*
X654Y345D01*
X0Y344D02*
X7Y344D01*
X647Y344D02*
X654Y344D01*
X0Y343D02*
X7Y343D01*
X647Y343D02*
X654Y343D01*
X0Y342D02*
X7Y342D01*
X647Y342D02*
X654Y342D01*
X0Y341D02*
X7Y341D01*
X647Y341D02*
X654Y341D01*
X0Y340D02*
X7Y340D01*
X647Y340D02*
X654Y340D01*
X0Y339D02*
X7Y339D01*
X647Y339D02*
X654Y339D01*
X0Y338D02*
X7Y338D01*
X647Y338D02*
X654Y338D01*
X0Y337D02*
X7Y337D01*
X647Y337D02*
X654Y337D01*
X0Y336D02*
X7Y336D01*
X647Y336D02*
X654Y336D01*
X0Y335D02*
X7Y335D01*
X647Y335D02*
X654Y335D01*
X0Y334D02*
X7Y334D01*
X647Y334D02*
X654Y334D01*
X0Y333D02*
X7Y333D01*
X647Y333D02*
X654Y333D01*
X0Y332D02*
X7Y332D01*
X647Y332D02*
X654Y332D01*
X0Y331D02*
X7Y331D01*
X647Y331D02*
X654Y331D01*
X0Y330D02*
X7Y330D01*
X647Y330D02*
X654Y330D01*
X0Y329D02*
X7Y329D01*
X647Y329D02*
X654Y329D01*
X0Y328D02*
X190Y328D01*
X647Y328D02*
X654Y328D01*
X0Y327D02*
X191Y327D01*
X647Y327D02*
X654Y327D01*
X0Y326D02*
X191Y326D01*
X647Y326D02*
X654Y326D01*
X0Y325D02*
X191Y325D01*
X647Y325D02*
X654Y325D01*
X0Y324D02*
X191Y324D01*
X647Y324D02*
X654Y324D01*
X0Y323D02*
X191Y323D01*
X647Y323D02*
X654Y323D01*
X0Y322D02*
X190Y322D01*
X647Y322D02*
X654Y322D01*
X0Y321D02*
X189Y321D01*
X647Y321D02*
X654Y321D01*
X0Y320D02*
X7Y320D01*
X647Y320D02*
X654Y320D01*
X0Y319D02*
X7Y319D01*
X647Y319D02*
X654Y319D01*
X0Y318D02*
X7Y318D01*
X647Y318D02*
X654Y318D01*
X0Y317D02*
X7Y317D01*
X647Y317D02*
X654Y317D01*
X0Y316D02*
X7Y316D01*
X647Y316D02*
X654Y316D01*
X0Y315D02*
X7Y315D01*
X647Y315D02*
X654Y315D01*
X0Y314D02*
X7Y314D01*
X647Y314D02*
X654Y314D01*
X0Y313D02*
X7Y313D01*
X647Y313D02*
X654Y313D01*
X0Y312D02*
X7Y312D01*
X647Y312D02*
X654Y312D01*
X0Y311D02*
X7Y311D01*
X647Y311D02*
X654Y311D01*
X0Y310D02*
X7Y310D01*
X647Y310D02*
X654Y310D01*
X0Y309D02*
X7Y309D01*
X647Y309D02*
X654Y309D01*
X0Y308D02*
X7Y308D01*
X647Y308D02*
X654Y308D01*
X0Y307D02*
X7Y307D01*
X647Y307D02*
X654Y307D01*
X0Y306D02*
X7Y306D01*
X647Y306D02*
X654Y306D01*
X0Y305D02*
X7Y305D01*
X647Y305D02*
X654Y305D01*
X0Y304D02*
X7Y304D01*
X647Y304D02*
X654Y304D01*
X0Y303D02*
X7Y303D01*
X647Y303D02*
X654Y303D01*
X0Y302D02*
X7Y302D01*
X647Y302D02*
X654Y302D01*
X0Y301D02*
X7Y301D01*
X647Y301D02*
X654Y301D01*
X0Y300D02*
X7Y300D01*
X647Y300D02*
X654Y300D01*
X0Y299D02*
X7Y299D01*
X647Y299D02*
X654Y299D01*
X0Y298D02*
X7Y298D01*
X647Y298D02*
X654Y298D01*
X0Y297D02*
X7Y297D01*
X647Y297D02*
X654Y297D01*
X0Y296D02*
X7Y296D01*
X647Y296D02*
X654Y296D01*
X0Y295D02*
X7Y295D01*
X647Y295D02*
X654Y295D01*
X0Y294D02*
X7Y294D01*
X647Y294D02*
X654Y294D01*
X0Y293D02*
X7Y293D01*
X647Y293D02*
X654Y293D01*
X0Y292D02*
X7Y292D01*
X647Y292D02*
X654Y292D01*
X0Y291D02*
X7Y291D01*
X647Y291D02*
X654Y291D01*
X0Y290D02*
X7Y290D01*
X647Y290D02*
X654Y290D01*
X0Y289D02*
X7Y289D01*
X647Y289D02*
X654Y289D01*
X0Y288D02*
X7Y288D01*
X647Y288D02*
X654Y288D01*
X0Y287D02*
X7Y287D01*
X647Y287D02*
X654Y287D01*
X0Y286D02*
X7Y286D01*
X647Y286D02*
X654Y286D01*
X0Y285D02*
X7Y285D01*
X647Y285D02*
X654Y285D01*
X0Y284D02*
X7Y284D01*
X647Y284D02*
X654Y284D01*
X0Y283D02*
X7Y283D01*
X647Y283D02*
X654Y283D01*
X0Y282D02*
X7Y282D01*
X647Y282D02*
X654Y282D01*
X0Y281D02*
X7Y281D01*
X477Y281D02*
X477Y281D01*
X554Y281D02*
X556Y281D01*
X647Y281D02*
X654Y281D01*
X0Y280D02*
X7Y280D01*
X475Y280D02*
X479Y280D01*
X554Y280D02*
X558Y280D01*
X647Y280D02*
X654Y280D01*
X0Y279D02*
X7Y279D01*
X474Y279D02*
X479Y279D01*
X554Y279D02*
X560Y279D01*
X647Y279D02*
X654Y279D01*
X0Y278D02*
X7Y278D01*
X472Y278D02*
X479Y278D01*
X554Y278D02*
X561Y278D01*
X647Y278D02*
X654Y278D01*
X0Y277D02*
X7Y277D01*
X471Y277D02*
X479Y277D01*
X554Y277D02*
X563Y277D01*
X647Y277D02*
X654Y277D01*
X0Y276D02*
X7Y276D01*
X470Y276D02*
X478Y276D01*
X556Y276D02*
X564Y276D01*
X597Y276D02*
X600Y276D01*
X647Y276D02*
X654Y276D01*
X0Y275D02*
X7Y275D01*
X468Y275D02*
X476Y275D01*
X557Y275D02*
X565Y275D01*
X596Y275D02*
X600Y275D01*
X647Y275D02*
X654Y275D01*
X0Y274D02*
X7Y274D01*
X467Y274D02*
X475Y274D01*
X559Y274D02*
X566Y274D01*
X596Y274D02*
X600Y274D01*
X647Y274D02*
X654Y274D01*
X0Y273D02*
X7Y273D01*
X466Y273D02*
X473Y273D01*
X560Y273D02*
X568Y273D01*
X596Y273D02*
X600Y273D01*
X647Y273D02*
X654Y273D01*
X0Y272D02*
X7Y272D01*
X465Y272D02*
X472Y272D01*
X562Y272D02*
X569Y272D01*
X596Y272D02*
X600Y272D01*
X647Y272D02*
X654Y272D01*
X0Y271D02*
X7Y271D01*
X464Y271D02*
X470Y271D01*
X563Y271D02*
X570Y271D01*
X596Y271D02*
X600Y271D01*
X647Y271D02*
X654Y271D01*
X0Y270D02*
X7Y270D01*
X463Y270D02*
X469Y270D01*
X564Y270D02*
X571Y270D01*
X596Y270D02*
X600Y270D01*
X647Y270D02*
X654Y270D01*
X0Y269D02*
X7Y269D01*
X462Y269D02*
X468Y269D01*
X565Y269D02*
X572Y269D01*
X596Y269D02*
X600Y269D01*
X647Y269D02*
X654Y269D01*
X0Y268D02*
X7Y268D01*
X461Y268D02*
X467Y268D01*
X567Y268D02*
X573Y268D01*
X596Y268D02*
X600Y268D01*
X647Y268D02*
X654Y268D01*
X0Y267D02*
X7Y267D01*
X460Y267D02*
X466Y267D01*
X568Y267D02*
X574Y267D01*
X588Y267D02*
X608Y267D01*
X647Y267D02*
X654Y267D01*
X0Y266D02*
X7Y266D01*
X459Y266D02*
X465Y266D01*
X569Y266D02*
X575Y266D01*
X587Y266D02*
X610Y266D01*
X647Y266D02*
X654Y266D01*
X0Y265D02*
X7Y265D01*
X207Y265D02*
X209Y265D01*
X458Y265D02*
X464Y265D01*
X570Y265D02*
X576Y265D01*
X587Y265D02*
X610Y265D01*
X647Y265D02*
X654Y265D01*
X0Y264D02*
X7Y264D01*
X206Y264D02*
X210Y264D01*
X457Y264D02*
X463Y264D01*
X571Y264D02*
X577Y264D01*
X587Y264D02*
X610Y264D01*
X647Y264D02*
X654Y264D01*
X0Y263D02*
X7Y263D01*
X206Y263D02*
X210Y263D01*
X456Y263D02*
X462Y263D01*
X572Y263D02*
X577Y263D01*
X587Y263D02*
X609Y263D01*
X647Y263D02*
X654Y263D01*
X0Y262D02*
X7Y262D01*
X206Y262D02*
X210Y262D01*
X455Y262D02*
X461Y262D01*
X573Y262D02*
X578Y262D01*
X596Y262D02*
X601Y262D01*
X647Y262D02*
X654Y262D01*
X0Y261D02*
X7Y261D01*
X206Y261D02*
X210Y261D01*
X454Y261D02*
X460Y261D01*
X573Y261D02*
X579Y261D01*
X596Y261D02*
X600Y261D01*
X647Y261D02*
X654Y261D01*
X0Y260D02*
X7Y260D01*
X206Y260D02*
X210Y260D01*
X454Y260D02*
X459Y260D01*
X574Y260D02*
X580Y260D01*
X596Y260D02*
X600Y260D01*
X647Y260D02*
X654Y260D01*
X0Y259D02*
X7Y259D01*
X31Y259D02*
X44Y259D01*
X206Y259D02*
X210Y259D01*
X453Y259D02*
X458Y259D01*
X575Y259D02*
X580Y259D01*
X596Y259D02*
X600Y259D01*
X647Y259D02*
X654Y259D01*
X0Y258D02*
X7Y258D01*
X30Y258D02*
X47Y258D01*
X206Y258D02*
X210Y258D01*
X452Y258D02*
X458Y258D01*
X576Y258D02*
X581Y258D01*
X596Y258D02*
X600Y258D01*
X647Y258D02*
X654Y258D01*
X0Y257D02*
X7Y257D01*
X29Y257D02*
X50Y257D01*
X206Y257D02*
X210Y257D01*
X452Y257D02*
X457Y257D01*
X577Y257D02*
X582Y257D01*
X596Y257D02*
X600Y257D01*
X647Y257D02*
X654Y257D01*
X0Y256D02*
X7Y256D01*
X29Y256D02*
X52Y256D01*
X206Y256D02*
X210Y256D01*
X451Y256D02*
X456Y256D01*
X577Y256D02*
X582Y256D01*
X596Y256D02*
X600Y256D01*
X647Y256D02*
X654Y256D01*
X0Y255D02*
X7Y255D01*
X29Y255D02*
X55Y255D01*
X197Y255D02*
X219Y255D01*
X450Y255D02*
X455Y255D01*
X578Y255D02*
X583Y255D01*
X596Y255D02*
X600Y255D01*
X647Y255D02*
X654Y255D01*
X0Y254D02*
X7Y254D01*
X29Y254D02*
X57Y254D01*
X196Y254D02*
X220Y254D01*
X450Y254D02*
X455Y254D01*
X579Y254D02*
X584Y254D01*
X597Y254D02*
X600Y254D01*
X647Y254D02*
X654Y254D01*
X0Y253D02*
X7Y253D01*
X30Y253D02*
X60Y253D01*
X196Y253D02*
X220Y253D01*
X449Y253D02*
X454Y253D01*
X579Y253D02*
X584Y253D01*
X597Y253D02*
X599Y253D01*
X647Y253D02*
X654Y253D01*
X0Y252D02*
X7Y252D01*
X44Y252D02*
X62Y252D01*
X197Y252D02*
X219Y252D01*
X448Y252D02*
X453Y252D01*
X580Y252D02*
X585Y252D01*
X647Y252D02*
X654Y252D01*
X0Y251D02*
X7Y251D01*
X47Y251D02*
X65Y251D01*
X198Y251D02*
X218Y251D01*
X448Y251D02*
X453Y251D01*
X581Y251D02*
X585Y251D01*
X647Y251D02*
X654Y251D01*
X0Y250D02*
X7Y250D01*
X49Y250D02*
X67Y250D01*
X206Y250D02*
X210Y250D01*
X447Y250D02*
X452Y250D01*
X581Y250D02*
X586Y250D01*
X647Y250D02*
X654Y250D01*
X0Y249D02*
X7Y249D01*
X52Y249D02*
X70Y249D01*
X206Y249D02*
X210Y249D01*
X447Y249D02*
X452Y249D01*
X582Y249D02*
X586Y249D01*
X647Y249D02*
X654Y249D01*
X0Y248D02*
X7Y248D01*
X54Y248D02*
X73Y248D01*
X206Y248D02*
X210Y248D01*
X446Y248D02*
X451Y248D01*
X582Y248D02*
X587Y248D01*
X647Y248D02*
X654Y248D01*
X0Y247D02*
X7Y247D01*
X57Y247D02*
X75Y247D01*
X206Y247D02*
X210Y247D01*
X446Y247D02*
X451Y247D01*
X583Y247D02*
X587Y247D01*
X647Y247D02*
X654Y247D01*
X0Y246D02*
X7Y246D01*
X59Y246D02*
X78Y246D01*
X206Y246D02*
X210Y246D01*
X445Y246D02*
X450Y246D01*
X584Y246D02*
X588Y246D01*
X647Y246D02*
X654Y246D01*
X0Y245D02*
X7Y245D01*
X62Y245D02*
X80Y245D01*
X206Y245D02*
X210Y245D01*
X445Y245D02*
X449Y245D01*
X584Y245D02*
X588Y245D01*
X647Y245D02*
X654Y245D01*
X0Y244D02*
X7Y244D01*
X64Y244D02*
X81Y244D01*
X206Y244D02*
X210Y244D01*
X445Y244D02*
X449Y244D01*
X585Y244D02*
X589Y244D01*
X647Y244D02*
X654Y244D01*
X0Y243D02*
X7Y243D01*
X67Y243D02*
X82Y243D01*
X206Y243D02*
X210Y243D01*
X444Y243D02*
X449Y243D01*
X585Y243D02*
X589Y243D01*
X647Y243D02*
X654Y243D01*
X0Y242D02*
X7Y242D01*
X69Y242D02*
X82Y242D01*
X207Y242D02*
X209Y242D01*
X444Y242D02*
X448Y242D01*
X585Y242D02*
X590Y242D01*
X647Y242D02*
X654Y242D01*
X0Y241D02*
X7Y241D01*
X67Y241D02*
X82Y241D01*
X443Y241D02*
X448Y241D01*
X586Y241D02*
X590Y241D01*
X647Y241D02*
X654Y241D01*
X0Y240D02*
X7Y240D01*
X65Y240D02*
X81Y240D01*
X443Y240D02*
X447Y240D01*
X586Y240D02*
X590Y240D01*
X647Y240D02*
X654Y240D01*
X0Y239D02*
X7Y239D01*
X62Y239D02*
X80Y239D01*
X443Y239D02*
X447Y239D01*
X587Y239D02*
X591Y239D01*
X647Y239D02*
X654Y239D01*
X0Y238D02*
X7Y238D01*
X60Y238D02*
X78Y238D01*
X442Y238D02*
X446Y238D01*
X587Y238D02*
X591Y238D01*
X647Y238D02*
X654Y238D01*
X0Y237D02*
X7Y237D01*
X57Y237D02*
X76Y237D01*
X442Y237D02*
X446Y237D01*
X587Y237D02*
X591Y237D01*
X647Y237D02*
X654Y237D01*
X0Y236D02*
X7Y236D01*
X55Y236D02*
X73Y236D01*
X442Y236D02*
X446Y236D01*
X588Y236D02*
X592Y236D01*
X647Y236D02*
X654Y236D01*
X0Y235D02*
X7Y235D01*
X52Y235D02*
X70Y235D01*
X441Y235D02*
X445Y235D01*
X588Y235D02*
X592Y235D01*
X647Y235D02*
X654Y235D01*
X0Y234D02*
X7Y234D01*
X49Y234D02*
X68Y234D01*
X441Y234D02*
X445Y234D01*
X588Y234D02*
X592Y234D01*
X647Y234D02*
X654Y234D01*
X0Y233D02*
X7Y233D01*
X47Y233D02*
X65Y233D01*
X441Y233D02*
X445Y233D01*
X589Y233D02*
X593Y233D01*
X647Y233D02*
X654Y233D01*
X0Y232D02*
X7Y232D01*
X44Y232D02*
X63Y232D01*
X440Y232D02*
X445Y232D01*
X589Y232D02*
X593Y232D01*
X647Y232D02*
X654Y232D01*
X0Y231D02*
X7Y231D01*
X30Y231D02*
X60Y231D01*
X440Y231D02*
X444Y231D01*
X589Y231D02*
X593Y231D01*
X647Y231D02*
X654Y231D01*
X0Y230D02*
X7Y230D01*
X29Y230D02*
X58Y230D01*
X440Y230D02*
X444Y230D01*
X589Y230D02*
X593Y230D01*
X647Y230D02*
X654Y230D01*
X0Y229D02*
X7Y229D01*
X29Y229D02*
X55Y229D01*
X440Y229D02*
X444Y229D01*
X590Y229D02*
X594Y229D01*
X647Y229D02*
X654Y229D01*
X0Y228D02*
X7Y228D01*
X29Y228D02*
X52Y228D01*
X440Y228D02*
X444Y228D01*
X590Y228D02*
X594Y228D01*
X647Y228D02*
X654Y228D01*
X0Y227D02*
X7Y227D01*
X29Y227D02*
X50Y227D01*
X439Y227D02*
X443Y227D01*
X590Y227D02*
X594Y227D01*
X647Y227D02*
X654Y227D01*
X0Y226D02*
X7Y226D01*
X30Y226D02*
X47Y226D01*
X439Y226D02*
X443Y226D01*
X590Y226D02*
X594Y226D01*
X647Y226D02*
X654Y226D01*
X0Y225D02*
X7Y225D01*
X31Y225D02*
X45Y225D01*
X439Y225D02*
X443Y225D01*
X590Y225D02*
X594Y225D01*
X647Y225D02*
X654Y225D01*
X0Y224D02*
X7Y224D01*
X439Y224D02*
X443Y224D01*
X591Y224D02*
X594Y224D01*
X647Y224D02*
X654Y224D01*
X0Y223D02*
X7Y223D01*
X439Y223D02*
X443Y223D01*
X591Y223D02*
X595Y223D01*
X647Y223D02*
X654Y223D01*
X0Y222D02*
X7Y222D01*
X439Y222D02*
X443Y222D01*
X591Y222D02*
X595Y222D01*
X647Y222D02*
X654Y222D01*
X0Y221D02*
X7Y221D01*
X439Y221D02*
X442Y221D01*
X591Y221D02*
X595Y221D01*
X647Y221D02*
X654Y221D01*
X0Y220D02*
X7Y220D01*
X439Y220D02*
X442Y220D01*
X591Y220D02*
X595Y220D01*
X647Y220D02*
X654Y220D01*
X0Y219D02*
X7Y219D01*
X438Y219D02*
X442Y219D01*
X591Y219D02*
X595Y219D01*
X647Y219D02*
X654Y219D01*
X0Y218D02*
X7Y218D01*
X438Y218D02*
X442Y218D01*
X591Y218D02*
X595Y218D01*
X647Y218D02*
X654Y218D01*
X0Y217D02*
X7Y217D01*
X438Y217D02*
X442Y217D01*
X591Y217D02*
X595Y217D01*
X647Y217D02*
X654Y217D01*
X0Y216D02*
X7Y216D01*
X438Y216D02*
X442Y216D01*
X591Y216D02*
X595Y216D01*
X647Y216D02*
X654Y216D01*
X0Y215D02*
X7Y215D01*
X438Y215D02*
X442Y215D01*
X591Y215D02*
X595Y215D01*
X647Y215D02*
X654Y215D01*
X0Y214D02*
X7Y214D01*
X438Y214D02*
X442Y214D01*
X591Y214D02*
X595Y214D01*
X647Y214D02*
X654Y214D01*
X0Y213D02*
X7Y213D01*
X438Y213D02*
X442Y213D01*
X591Y213D02*
X595Y213D01*
X647Y213D02*
X654Y213D01*
X0Y212D02*
X7Y212D01*
X438Y212D02*
X442Y212D01*
X591Y212D02*
X595Y212D01*
X647Y212D02*
X654Y212D01*
X0Y211D02*
X7Y211D01*
X438Y211D02*
X442Y211D01*
X591Y211D02*
X595Y211D01*
X647Y211D02*
X654Y211D01*
X0Y210D02*
X7Y210D01*
X438Y210D02*
X442Y210D01*
X591Y210D02*
X595Y210D01*
X647Y210D02*
X654Y210D01*
X0Y209D02*
X7Y209D01*
X32Y209D02*
X79Y209D01*
X438Y209D02*
X442Y209D01*
X591Y209D02*
X595Y209D01*
X647Y209D02*
X654Y209D01*
X0Y208D02*
X7Y208D01*
X30Y208D02*
X81Y208D01*
X438Y208D02*
X442Y208D01*
X591Y208D02*
X595Y208D01*
X647Y208D02*
X654Y208D01*
X0Y207D02*
X7Y207D01*
X29Y207D02*
X82Y207D01*
X438Y207D02*
X442Y207D01*
X591Y207D02*
X595Y207D01*
X647Y207D02*
X654Y207D01*
X0Y206D02*
X7Y206D01*
X29Y206D02*
X82Y206D01*
X438Y206D02*
X442Y206D01*
X591Y206D02*
X595Y206D01*
X647Y206D02*
X654Y206D01*
X0Y205D02*
X7Y205D01*
X29Y205D02*
X82Y205D01*
X439Y205D02*
X442Y205D01*
X591Y205D02*
X595Y205D01*
X647Y205D02*
X654Y205D01*
X0Y204D02*
X7Y204D01*
X29Y204D02*
X82Y204D01*
X439Y204D02*
X442Y204D01*
X591Y204D02*
X595Y204D01*
X647Y204D02*
X654Y204D01*
X0Y203D02*
X7Y203D01*
X29Y203D02*
X82Y203D01*
X439Y203D02*
X443Y203D01*
X591Y203D02*
X595Y203D01*
X647Y203D02*
X654Y203D01*
X0Y202D02*
X7Y202D01*
X29Y202D02*
X35Y202D01*
X46Y202D02*
X53Y202D01*
X76Y202D02*
X82Y202D01*
X439Y202D02*
X443Y202D01*
X591Y202D02*
X595Y202D01*
X647Y202D02*
X654Y202D01*
X0Y201D02*
X7Y201D01*
X29Y201D02*
X35Y201D01*
X47Y201D02*
X53Y201D01*
X76Y201D02*
X82Y201D01*
X439Y201D02*
X443Y201D01*
X591Y201D02*
X594Y201D01*
X647Y201D02*
X654Y201D01*
X0Y200D02*
X7Y200D01*
X29Y200D02*
X35Y200D01*
X47Y200D02*
X53Y200D01*
X77Y200D02*
X81Y200D01*
X439Y200D02*
X443Y200D01*
X590Y200D02*
X594Y200D01*
X647Y200D02*
X654Y200D01*
X0Y199D02*
X7Y199D01*
X29Y199D02*
X35Y199D01*
X47Y199D02*
X53Y199D01*
X78Y199D02*
X80Y199D01*
X439Y199D02*
X443Y199D01*
X590Y199D02*
X594Y199D01*
X647Y199D02*
X654Y199D01*
X0Y198D02*
X7Y198D01*
X29Y198D02*
X35Y198D01*
X47Y198D02*
X53Y198D01*
X440Y198D02*
X443Y198D01*
X590Y198D02*
X594Y198D01*
X647Y198D02*
X654Y198D01*
X0Y197D02*
X7Y197D01*
X29Y197D02*
X35Y197D01*
X47Y197D02*
X53Y197D01*
X440Y197D02*
X444Y197D01*
X590Y197D02*
X594Y197D01*
X647Y197D02*
X654Y197D01*
X0Y196D02*
X7Y196D01*
X29Y196D02*
X35Y196D01*
X47Y196D02*
X53Y196D01*
X440Y196D02*
X444Y196D01*
X590Y196D02*
X594Y196D01*
X647Y196D02*
X654Y196D01*
X0Y195D02*
X7Y195D01*
X29Y195D02*
X35Y195D01*
X47Y195D02*
X53Y195D01*
X440Y195D02*
X444Y195D01*
X589Y195D02*
X593Y195D01*
X647Y195D02*
X654Y195D01*
X0Y194D02*
X7Y194D01*
X29Y194D02*
X35Y194D01*
X47Y194D02*
X53Y194D01*
X440Y194D02*
X444Y194D01*
X589Y194D02*
X593Y194D01*
X647Y194D02*
X654Y194D01*
X0Y193D02*
X7Y193D01*
X29Y193D02*
X35Y193D01*
X47Y193D02*
X53Y193D01*
X441Y193D02*
X445Y193D01*
X589Y193D02*
X593Y193D01*
X647Y193D02*
X654Y193D01*
X0Y192D02*
X7Y192D01*
X29Y192D02*
X35Y192D01*
X47Y192D02*
X53Y192D01*
X441Y192D02*
X445Y192D01*
X588Y192D02*
X593Y192D01*
X647Y192D02*
X654Y192D01*
X0Y191D02*
X7Y191D01*
X29Y191D02*
X35Y191D01*
X47Y191D02*
X53Y191D01*
X441Y191D02*
X445Y191D01*
X588Y191D02*
X592Y191D01*
X647Y191D02*
X654Y191D01*
X0Y190D02*
X7Y190D01*
X29Y190D02*
X35Y190D01*
X47Y190D02*
X53Y190D01*
X442Y190D02*
X445Y190D01*
X588Y190D02*
X592Y190D01*
X647Y190D02*
X654Y190D01*
X0Y189D02*
X7Y189D01*
X29Y189D02*
X35Y189D01*
X47Y189D02*
X53Y189D01*
X442Y189D02*
X446Y189D01*
X588Y189D02*
X592Y189D01*
X647Y189D02*
X654Y189D01*
X0Y188D02*
X7Y188D01*
X29Y188D02*
X35Y188D01*
X47Y188D02*
X53Y188D01*
X442Y188D02*
X446Y188D01*
X587Y188D02*
X591Y188D01*
X647Y188D02*
X654Y188D01*
X0Y187D02*
X7Y187D01*
X29Y187D02*
X35Y187D01*
X47Y187D02*
X53Y187D01*
X442Y187D02*
X447Y187D01*
X587Y187D02*
X591Y187D01*
X647Y187D02*
X654Y187D01*
X0Y186D02*
X7Y186D01*
X29Y186D02*
X35Y186D01*
X47Y186D02*
X53Y186D01*
X443Y186D02*
X447Y186D01*
X586Y186D02*
X591Y186D01*
X647Y186D02*
X654Y186D01*
X0Y185D02*
X7Y185D01*
X29Y185D02*
X35Y185D01*
X47Y185D02*
X53Y185D01*
X443Y185D02*
X447Y185D01*
X586Y185D02*
X590Y185D01*
X647Y185D02*
X654Y185D01*
X0Y184D02*
X7Y184D01*
X29Y184D02*
X35Y184D01*
X47Y184D02*
X53Y184D01*
X444Y184D02*
X448Y184D01*
X586Y184D02*
X590Y184D01*
X647Y184D02*
X654Y184D01*
X0Y183D02*
X7Y183D01*
X29Y183D02*
X35Y183D01*
X47Y183D02*
X53Y183D01*
X444Y183D02*
X448Y183D01*
X585Y183D02*
X590Y183D01*
X647Y183D02*
X654Y183D01*
X0Y182D02*
X7Y182D01*
X29Y182D02*
X35Y182D01*
X47Y182D02*
X53Y182D01*
X444Y182D02*
X449Y182D01*
X585Y182D02*
X589Y182D01*
X647Y182D02*
X654Y182D01*
X0Y181D02*
X7Y181D01*
X29Y181D02*
X53Y181D01*
X445Y181D02*
X449Y181D01*
X584Y181D02*
X589Y181D01*
X647Y181D02*
X654Y181D01*
X0Y180D02*
X7Y180D01*
X29Y180D02*
X53Y180D01*
X445Y180D02*
X450Y180D01*
X584Y180D02*
X588Y180D01*
X647Y180D02*
X654Y180D01*
X0Y179D02*
X7Y179D01*
X29Y179D02*
X53Y179D01*
X446Y179D02*
X450Y179D01*
X583Y179D02*
X588Y179D01*
X647Y179D02*
X654Y179D01*
X0Y178D02*
X7Y178D01*
X29Y178D02*
X53Y178D01*
X446Y178D02*
X451Y178D01*
X583Y178D02*
X587Y178D01*
X647Y178D02*
X654Y178D01*
X0Y177D02*
X7Y177D01*
X29Y177D02*
X52Y177D01*
X447Y177D02*
X451Y177D01*
X582Y177D02*
X587Y177D01*
X647Y177D02*
X654Y177D01*
X0Y176D02*
X7Y176D01*
X30Y176D02*
X52Y176D01*
X447Y176D02*
X452Y176D01*
X582Y176D02*
X586Y176D01*
X647Y176D02*
X654Y176D01*
X0Y175D02*
X7Y175D01*
X31Y175D02*
X51Y175D01*
X448Y175D02*
X452Y175D01*
X581Y175D02*
X586Y175D01*
X647Y175D02*
X654Y175D01*
X0Y174D02*
X7Y174D01*
X448Y174D02*
X453Y174D01*
X581Y174D02*
X585Y174D01*
X647Y174D02*
X654Y174D01*
X0Y173D02*
X7Y173D01*
X449Y173D02*
X454Y173D01*
X580Y173D02*
X585Y173D01*
X647Y173D02*
X654Y173D01*
X0Y172D02*
X7Y172D01*
X449Y172D02*
X454Y172D01*
X579Y172D02*
X584Y172D01*
X647Y172D02*
X654Y172D01*
X0Y171D02*
X7Y171D01*
X450Y171D02*
X455Y171D01*
X578Y171D02*
X584Y171D01*
X647Y171D02*
X654Y171D01*
X0Y170D02*
X7Y170D01*
X451Y170D02*
X455Y170D01*
X578Y170D02*
X583Y170D01*
X596Y170D02*
X599Y170D01*
X647Y170D02*
X654Y170D01*
X0Y169D02*
X7Y169D01*
X451Y169D02*
X456Y169D01*
X577Y169D02*
X582Y169D01*
X595Y169D02*
X600Y169D01*
X647Y169D02*
X654Y169D01*
X0Y168D02*
X7Y168D01*
X452Y168D02*
X457Y168D01*
X576Y168D02*
X582Y168D01*
X594Y168D02*
X600Y168D01*
X647Y168D02*
X654Y168D01*
X0Y167D02*
X7Y167D01*
X452Y167D02*
X458Y167D01*
X576Y167D02*
X581Y167D01*
X594Y167D02*
X600Y167D01*
X647Y167D02*
X654Y167D01*
X0Y166D02*
X7Y166D01*
X453Y166D02*
X459Y166D01*
X575Y166D02*
X580Y166D01*
X594Y166D02*
X600Y166D01*
X647Y166D02*
X654Y166D01*
X0Y165D02*
X7Y165D01*
X454Y165D02*
X459Y165D01*
X574Y165D02*
X580Y165D01*
X594Y165D02*
X600Y165D01*
X647Y165D02*
X654Y165D01*
X0Y164D02*
X7Y164D01*
X455Y164D02*
X460Y164D01*
X573Y164D02*
X579Y164D01*
X594Y164D02*
X600Y164D01*
X647Y164D02*
X654Y164D01*
X0Y163D02*
X7Y163D01*
X456Y163D02*
X461Y163D01*
X572Y163D02*
X578Y163D01*
X594Y163D02*
X600Y163D01*
X647Y163D02*
X654Y163D01*
X0Y162D02*
X7Y162D01*
X456Y162D02*
X462Y162D01*
X571Y162D02*
X577Y162D01*
X594Y162D02*
X600Y162D01*
X647Y162D02*
X654Y162D01*
X0Y161D02*
X7Y161D01*
X457Y161D02*
X463Y161D01*
X570Y161D02*
X576Y161D01*
X594Y161D02*
X600Y161D01*
X647Y161D02*
X654Y161D01*
X0Y160D02*
X7Y160D01*
X458Y160D02*
X464Y160D01*
X569Y160D02*
X575Y160D01*
X594Y160D02*
X600Y160D01*
X647Y160D02*
X654Y160D01*
X0Y159D02*
X7Y159D01*
X459Y159D02*
X465Y159D01*
X568Y159D02*
X575Y159D01*
X594Y159D02*
X600Y159D01*
X647Y159D02*
X654Y159D01*
X0Y158D02*
X7Y158D01*
X205Y158D02*
X209Y158D01*
X460Y158D02*
X466Y158D01*
X567Y158D02*
X574Y158D01*
X594Y158D02*
X600Y158D01*
X647Y158D02*
X654Y158D01*
X0Y157D02*
X7Y157D01*
X204Y157D02*
X210Y157D01*
X461Y157D02*
X467Y157D01*
X566Y157D02*
X573Y157D01*
X594Y157D02*
X600Y157D01*
X647Y157D02*
X654Y157D01*
X0Y156D02*
X7Y156D01*
X204Y156D02*
X210Y156D01*
X462Y156D02*
X468Y156D01*
X565Y156D02*
X572Y156D01*
X594Y156D02*
X600Y156D01*
X647Y156D02*
X654Y156D01*
X0Y155D02*
X7Y155D01*
X204Y155D02*
X210Y155D01*
X463Y155D02*
X470Y155D01*
X564Y155D02*
X571Y155D01*
X594Y155D02*
X600Y155D01*
X647Y155D02*
X654Y155D01*
X0Y154D02*
X7Y154D01*
X204Y154D02*
X210Y154D01*
X464Y154D02*
X471Y154D01*
X563Y154D02*
X570Y154D01*
X594Y154D02*
X600Y154D01*
X647Y154D02*
X654Y154D01*
X0Y153D02*
X7Y153D01*
X204Y153D02*
X210Y153D01*
X465Y153D02*
X483Y153D01*
X550Y153D02*
X568Y153D01*
X594Y153D02*
X600Y153D01*
X647Y153D02*
X654Y153D01*
X0Y152D02*
X7Y152D01*
X204Y152D02*
X210Y152D01*
X466Y152D02*
X484Y152D01*
X550Y152D02*
X567Y152D01*
X594Y152D02*
X600Y152D01*
X647Y152D02*
X654Y152D01*
X0Y151D02*
X7Y151D01*
X204Y151D02*
X210Y151D01*
X467Y151D02*
X484Y151D01*
X549Y151D02*
X566Y151D01*
X594Y151D02*
X600Y151D01*
X647Y151D02*
X654Y151D01*
X0Y150D02*
X7Y150D01*
X204Y150D02*
X210Y150D01*
X469Y150D02*
X485Y150D01*
X548Y150D02*
X565Y150D01*
X594Y150D02*
X600Y150D01*
X647Y150D02*
X654Y150D01*
X0Y149D02*
X7Y149D01*
X204Y149D02*
X210Y149D01*
X470Y149D02*
X484Y149D01*
X549Y149D02*
X563Y149D01*
X594Y149D02*
X600Y149D01*
X647Y149D02*
X654Y149D01*
X0Y148D02*
X7Y148D01*
X204Y148D02*
X210Y148D01*
X594Y148D02*
X600Y148D01*
X647Y148D02*
X654Y148D01*
X0Y147D02*
X7Y147D01*
X204Y147D02*
X210Y147D01*
X595Y147D02*
X600Y147D01*
X647Y147D02*
X654Y147D01*
X0Y146D02*
X7Y146D01*
X204Y146D02*
X210Y146D01*
X596Y146D02*
X599Y146D01*
X647Y146D02*
X654Y146D01*
X0Y145D02*
X7Y145D01*
X204Y145D02*
X210Y145D01*
X647Y145D02*
X654Y145D01*
X0Y144D02*
X7Y144D01*
X204Y144D02*
X210Y144D01*
X647Y144D02*
X654Y144D01*
X0Y143D02*
X7Y143D01*
X204Y143D02*
X210Y143D01*
X647Y143D02*
X654Y143D01*
X0Y142D02*
X7Y142D01*
X204Y142D02*
X210Y142D01*
X647Y142D02*
X654Y142D01*
X0Y141D02*
X7Y141D01*
X204Y141D02*
X210Y141D01*
X647Y141D02*
X654Y141D01*
X0Y140D02*
X7Y140D01*
X204Y140D02*
X210Y140D01*
X647Y140D02*
X654Y140D01*
X0Y139D02*
X7Y139D01*
X204Y139D02*
X210Y139D01*
X647Y139D02*
X654Y139D01*
X0Y138D02*
X7Y138D01*
X204Y138D02*
X210Y138D01*
X647Y138D02*
X654Y138D01*
X0Y137D02*
X7Y137D01*
X204Y137D02*
X210Y137D01*
X647Y137D02*
X654Y137D01*
X0Y136D02*
X7Y136D01*
X204Y136D02*
X210Y136D01*
X647Y136D02*
X654Y136D01*
X0Y135D02*
X7Y135D01*
X205Y135D02*
X209Y135D01*
X647Y135D02*
X654Y135D01*
X0Y134D02*
X7Y134D01*
X647Y134D02*
X654Y134D01*
X0Y133D02*
X7Y133D01*
X647Y133D02*
X654Y133D01*
X0Y132D02*
X7Y132D01*
X647Y132D02*
X654Y132D01*
X0Y131D02*
X7Y131D01*
X647Y131D02*
X654Y131D01*
X0Y130D02*
X7Y130D01*
X647Y130D02*
X654Y130D01*
X0Y129D02*
X7Y129D01*
X647Y129D02*
X654Y129D01*
X0Y128D02*
X7Y128D01*
X647Y128D02*
X654Y128D01*
X0Y127D02*
X7Y127D01*
X647Y127D02*
X654Y127D01*
X0Y126D02*
X7Y126D01*
X647Y126D02*
X654Y126D01*
X0Y125D02*
X7Y125D01*
X647Y125D02*
X654Y125D01*
X0Y124D02*
X7Y124D01*
X647Y124D02*
X654Y124D01*
X0Y123D02*
X7Y123D01*
X647Y123D02*
X654Y123D01*
X0Y122D02*
X7Y122D01*
X647Y122D02*
X654Y122D01*
X0Y121D02*
X7Y121D01*
X647Y121D02*
X654Y121D01*
X0Y120D02*
X7Y120D01*
X647Y120D02*
X654Y120D01*
X0Y119D02*
X7Y119D01*
X647Y119D02*
X654Y119D01*
X0Y118D02*
X7Y118D01*
X647Y118D02*
X654Y118D01*
X0Y117D02*
X7Y117D01*
X647Y117D02*
X654Y117D01*
X0Y116D02*
X7Y116D01*
X647Y116D02*
X654Y116D01*
X0Y115D02*
X7Y115D01*
X647Y115D02*
X654Y115D01*
X0Y114D02*
X7Y114D01*
X647Y114D02*
X654Y114D01*
X0Y113D02*
X7Y113D01*
X647Y113D02*
X654Y113D01*
X0Y112D02*
X7Y112D01*
X647Y112D02*
X654Y112D01*
X0Y111D02*
X7Y111D01*
X647Y111D02*
X654Y111D01*
X0Y110D02*
X7Y110D01*
X647Y110D02*
X654Y110D01*
X0Y109D02*
X7Y109D01*
X647Y109D02*
X654Y109D01*
X0Y108D02*
X7Y108D01*
X647Y108D02*
X654Y108D01*
X0Y107D02*
X7Y107D01*
X647Y107D02*
X654Y107D01*
X0Y106D02*
X7Y106D01*
X647Y106D02*
X654Y106D01*
X0Y105D02*
X7Y105D01*
X647Y105D02*
X654Y105D01*
X0Y104D02*
X7Y104D01*
X647Y104D02*
X654Y104D01*
X0Y103D02*
X7Y103D01*
X647Y103D02*
X654Y103D01*
X0Y102D02*
X7Y102D01*
X647Y102D02*
X654Y102D01*
X0Y101D02*
X7Y101D01*
X647Y101D02*
X654Y101D01*
X0Y100D02*
X7Y100D01*
X647Y100D02*
X654Y100D01*
X0Y99D02*
X7Y99D01*
X647Y99D02*
X654Y99D01*
X0Y98D02*
X7Y98D01*
X647Y98D02*
X654Y98D01*
X0Y97D02*
X7Y97D01*
X647Y97D02*
X654Y97D01*
X0Y96D02*
X7Y96D01*
X647Y96D02*
X654Y96D01*
X0Y95D02*
X7Y95D01*
X647Y95D02*
X654Y95D01*
X0Y94D02*
X7Y94D01*
X647Y94D02*
X654Y94D01*
X0Y93D02*
X7Y93D01*
X647Y93D02*
X654Y93D01*
X0Y92D02*
X189Y92D01*
X647Y92D02*
X654Y92D01*
X0Y91D02*
X191Y91D01*
X647Y91D02*
X654Y91D01*
X0Y90D02*
X191Y90D01*
X647Y90D02*
X654Y90D01*
X0Y89D02*
X191Y89D01*
X458Y89D02*
X458Y89D01*
X505Y89D02*
X536Y89D01*
X558Y89D02*
X572Y89D01*
X608Y89D02*
X625Y89D01*
X647Y89D02*
X654Y89D01*
X0Y88D02*
X191Y88D01*
X456Y88D02*
X460Y88D01*
X505Y88D02*
X538Y88D01*
X556Y88D02*
X575Y88D01*
X606Y88D02*
X625Y88D01*
X647Y88D02*
X654Y88D01*
X0Y87D02*
X191Y87D01*
X455Y87D02*
X461Y87D01*
X505Y87D02*
X538Y87D01*
X556Y87D02*
X577Y87D01*
X606Y87D02*
X625Y87D01*
X647Y87D02*
X654Y87D01*
X0Y86D02*
X190Y86D01*
X455Y86D02*
X461Y86D01*
X505Y86D02*
X539Y86D01*
X555Y86D02*
X578Y86D01*
X605Y86D02*
X625Y86D01*
X647Y86D02*
X654Y86D01*
X0Y85D02*
X189Y85D01*
X455Y85D02*
X461Y85D01*
X505Y85D02*
X539Y85D01*
X555Y85D02*
X579Y85D01*
X606Y85D02*
X625Y85D01*
X647Y85D02*
X654Y85D01*
X0Y84D02*
X7Y84D01*
X455Y84D02*
X461Y84D01*
X505Y84D02*
X538Y84D01*
X556Y84D02*
X580Y84D01*
X606Y84D02*
X625Y84D01*
X647Y84D02*
X654Y84D01*
X0Y83D02*
X7Y83D01*
X455Y83D02*
X461Y83D01*
X505Y83D02*
X537Y83D01*
X557Y83D02*
X580Y83D01*
X607Y83D02*
X625Y83D01*
X647Y83D02*
X654Y83D01*
X0Y82D02*
X7Y82D01*
X455Y82D02*
X461Y82D01*
X505Y82D02*
X511Y82D01*
X562Y82D02*
X568Y82D01*
X573Y82D02*
X581Y82D01*
X619Y82D02*
X625Y82D01*
X647Y82D02*
X654Y82D01*
X0Y81D02*
X7Y81D01*
X455Y81D02*
X461Y81D01*
X505Y81D02*
X511Y81D01*
X562Y81D02*
X568Y81D01*
X574Y81D02*
X581Y81D01*
X619Y81D02*
X625Y81D01*
X647Y81D02*
X654Y81D01*
X0Y80D02*
X7Y80D01*
X455Y80D02*
X461Y80D01*
X505Y80D02*
X511Y80D01*
X562Y80D02*
X568Y80D01*
X575Y80D02*
X582Y80D01*
X619Y80D02*
X625Y80D01*
X647Y80D02*
X654Y80D01*
X0Y79D02*
X7Y79D01*
X455Y79D02*
X461Y79D01*
X505Y79D02*
X511Y79D01*
X562Y79D02*
X568Y79D01*
X575Y79D02*
X582Y79D01*
X619Y79D02*
X625Y79D01*
X647Y79D02*
X654Y79D01*
X0Y78D02*
X7Y78D01*
X455Y78D02*
X461Y78D01*
X505Y78D02*
X511Y78D01*
X562Y78D02*
X568Y78D01*
X576Y78D02*
X583Y78D01*
X619Y78D02*
X625Y78D01*
X647Y78D02*
X654Y78D01*
X0Y77D02*
X7Y77D01*
X455Y77D02*
X461Y77D01*
X505Y77D02*
X511Y77D01*
X562Y77D02*
X568Y77D01*
X576Y77D02*
X583Y77D01*
X619Y77D02*
X625Y77D01*
X647Y77D02*
X654Y77D01*
X0Y76D02*
X7Y76D01*
X455Y76D02*
X461Y76D01*
X505Y76D02*
X511Y76D01*
X562Y76D02*
X568Y76D01*
X577Y76D02*
X584Y76D01*
X619Y76D02*
X625Y76D01*
X647Y76D02*
X654Y76D01*
X0Y75D02*
X7Y75D01*
X455Y75D02*
X461Y75D01*
X505Y75D02*
X511Y75D01*
X562Y75D02*
X568Y75D01*
X577Y75D02*
X584Y75D01*
X619Y75D02*
X625Y75D01*
X647Y75D02*
X654Y75D01*
X0Y74D02*
X7Y74D01*
X455Y74D02*
X461Y74D01*
X505Y74D02*
X511Y74D01*
X562Y74D02*
X568Y74D01*
X578Y74D02*
X585Y74D01*
X619Y74D02*
X625Y74D01*
X647Y74D02*
X654Y74D01*
X0Y73D02*
X7Y73D01*
X455Y73D02*
X461Y73D01*
X505Y73D02*
X511Y73D01*
X562Y73D02*
X568Y73D01*
X578Y73D02*
X585Y73D01*
X619Y73D02*
X625Y73D01*
X647Y73D02*
X654Y73D01*
X0Y72D02*
X7Y72D01*
X455Y72D02*
X461Y72D01*
X505Y72D02*
X511Y72D01*
X562Y72D02*
X568Y72D01*
X579Y72D02*
X586Y72D01*
X619Y72D02*
X625Y72D01*
X647Y72D02*
X654Y72D01*
X0Y71D02*
X7Y71D01*
X455Y71D02*
X461Y71D01*
X505Y71D02*
X511Y71D01*
X562Y71D02*
X568Y71D01*
X579Y71D02*
X586Y71D01*
X619Y71D02*
X625Y71D01*
X647Y71D02*
X654Y71D01*
X0Y70D02*
X7Y70D01*
X455Y70D02*
X461Y70D01*
X505Y70D02*
X511Y70D01*
X562Y70D02*
X568Y70D01*
X580Y70D02*
X587Y70D01*
X619Y70D02*
X625Y70D01*
X647Y70D02*
X654Y70D01*
X0Y69D02*
X7Y69D01*
X455Y69D02*
X461Y69D01*
X505Y69D02*
X511Y69D01*
X562Y69D02*
X568Y69D01*
X580Y69D02*
X587Y69D01*
X619Y69D02*
X625Y69D01*
X647Y69D02*
X654Y69D01*
X0Y68D02*
X7Y68D01*
X455Y68D02*
X461Y68D01*
X505Y68D02*
X511Y68D01*
X562Y68D02*
X568Y68D01*
X581Y68D02*
X588Y68D01*
X619Y68D02*
X625Y68D01*
X647Y68D02*
X654Y68D01*
X0Y67D02*
X7Y67D01*
X455Y67D02*
X461Y67D01*
X505Y67D02*
X511Y67D01*
X562Y67D02*
X568Y67D01*
X581Y67D02*
X588Y67D01*
X619Y67D02*
X625Y67D01*
X647Y67D02*
X654Y67D01*
X0Y66D02*
X7Y66D01*
X455Y66D02*
X461Y66D01*
X505Y66D02*
X511Y66D01*
X562Y66D02*
X568Y66D01*
X582Y66D02*
X588Y66D01*
X619Y66D02*
X625Y66D01*
X647Y66D02*
X654Y66D01*
X0Y65D02*
X7Y65D01*
X455Y65D02*
X461Y65D01*
X505Y65D02*
X523Y65D01*
X562Y65D02*
X568Y65D01*
X582Y65D02*
X588Y65D01*
X619Y65D02*
X625Y65D01*
X647Y65D02*
X654Y65D01*
X0Y64D02*
X7Y64D01*
X455Y64D02*
X461Y64D01*
X505Y64D02*
X524Y64D01*
X562Y64D02*
X568Y64D01*
X583Y64D02*
X589Y64D01*
X619Y64D02*
X625Y64D01*
X647Y64D02*
X654Y64D01*
X0Y63D02*
X7Y63D01*
X455Y63D02*
X461Y63D01*
X505Y63D02*
X525Y63D01*
X562Y63D02*
X568Y63D01*
X583Y63D02*
X589Y63D01*
X619Y63D02*
X625Y63D01*
X647Y63D02*
X654Y63D01*
X0Y62D02*
X7Y62D01*
X455Y62D02*
X461Y62D01*
X505Y62D02*
X525Y62D01*
X562Y62D02*
X568Y62D01*
X583Y62D02*
X589Y62D01*
X619Y62D02*
X625Y62D01*
X647Y62D02*
X654Y62D01*
X0Y61D02*
X7Y61D01*
X455Y61D02*
X461Y61D01*
X505Y61D02*
X525Y61D01*
X562Y61D02*
X568Y61D01*
X583Y61D02*
X589Y61D01*
X619Y61D02*
X625Y61D01*
X647Y61D02*
X654Y61D01*
X0Y60D02*
X7Y60D01*
X455Y60D02*
X461Y60D01*
X505Y60D02*
X524Y60D01*
X562Y60D02*
X568Y60D01*
X582Y60D02*
X589Y60D01*
X619Y60D02*
X625Y60D01*
X647Y60D02*
X654Y60D01*
X0Y59D02*
X7Y59D01*
X455Y59D02*
X461Y59D01*
X505Y59D02*
X523Y59D01*
X562Y59D02*
X568Y59D01*
X582Y59D02*
X588Y59D01*
X619Y59D02*
X625Y59D01*
X634Y59D02*
X637Y59D01*
X647Y59D02*
X654Y59D01*
X0Y58D02*
X7Y58D01*
X455Y58D02*
X461Y58D01*
X505Y58D02*
X511Y58D01*
X562Y58D02*
X568Y58D01*
X582Y58D02*
X588Y58D01*
X619Y58D02*
X625Y58D01*
X634Y58D02*
X638Y58D01*
X647Y58D02*
X654Y58D01*
X0Y57D02*
X7Y57D01*
X455Y57D02*
X461Y57D01*
X505Y57D02*
X511Y57D01*
X562Y57D02*
X568Y57D01*
X581Y57D02*
X588Y57D01*
X619Y57D02*
X625Y57D01*
X633Y57D02*
X639Y57D01*
X647Y57D02*
X654Y57D01*
X0Y56D02*
X7Y56D01*
X455Y56D02*
X461Y56D01*
X505Y56D02*
X511Y56D01*
X562Y56D02*
X568Y56D01*
X581Y56D02*
X587Y56D01*
X619Y56D02*
X625Y56D01*
X633Y56D02*
X639Y56D01*
X647Y56D02*
X654Y56D01*
X0Y55D02*
X7Y55D01*
X455Y55D02*
X461Y55D01*
X505Y55D02*
X511Y55D01*
X562Y55D02*
X568Y55D01*
X580Y55D02*
X587Y55D01*
X619Y55D02*
X625Y55D01*
X633Y55D02*
X639Y55D01*
X647Y55D02*
X654Y55D01*
X0Y54D02*
X7Y54D01*
X455Y54D02*
X461Y54D01*
X505Y54D02*
X511Y54D01*
X562Y54D02*
X568Y54D01*
X580Y54D02*
X587Y54D01*
X619Y54D02*
X625Y54D01*
X633Y54D02*
X639Y54D01*
X647Y54D02*
X654Y54D01*
X0Y53D02*
X7Y53D01*
X455Y53D02*
X461Y53D01*
X505Y53D02*
X511Y53D01*
X562Y53D02*
X568Y53D01*
X579Y53D02*
X586Y53D01*
X619Y53D02*
X625Y53D01*
X633Y53D02*
X639Y53D01*
X647Y53D02*
X654Y53D01*
X0Y52D02*
X7Y52D01*
X455Y52D02*
X461Y52D01*
X505Y52D02*
X511Y52D01*
X562Y52D02*
X568Y52D01*
X579Y52D02*
X586Y52D01*
X619Y52D02*
X625Y52D01*
X633Y52D02*
X639Y52D01*
X647Y52D02*
X654Y52D01*
X0Y51D02*
X7Y51D01*
X455Y51D02*
X461Y51D01*
X505Y51D02*
X511Y51D01*
X562Y51D02*
X568Y51D01*
X578Y51D02*
X585Y51D01*
X619Y51D02*
X625Y51D01*
X633Y51D02*
X639Y51D01*
X647Y51D02*
X654Y51D01*
X0Y50D02*
X7Y50D01*
X455Y50D02*
X461Y50D01*
X505Y50D02*
X511Y50D01*
X562Y50D02*
X568Y50D01*
X578Y50D02*
X585Y50D01*
X619Y50D02*
X625Y50D01*
X633Y50D02*
X639Y50D01*
X647Y50D02*
X654Y50D01*
X0Y49D02*
X7Y49D01*
X455Y49D02*
X461Y49D01*
X505Y49D02*
X511Y49D01*
X562Y49D02*
X568Y49D01*
X577Y49D02*
X584Y49D01*
X619Y49D02*
X625Y49D01*
X633Y49D02*
X639Y49D01*
X647Y49D02*
X654Y49D01*
X0Y48D02*
X7Y48D01*
X455Y48D02*
X461Y48D01*
X505Y48D02*
X511Y48D01*
X562Y48D02*
X568Y48D01*
X577Y48D02*
X584Y48D01*
X619Y48D02*
X625Y48D01*
X633Y48D02*
X639Y48D01*
X647Y48D02*
X654Y48D01*
X0Y47D02*
X7Y47D01*
X455Y47D02*
X461Y47D01*
X505Y47D02*
X511Y47D01*
X562Y47D02*
X568Y47D01*
X576Y47D02*
X583Y47D01*
X619Y47D02*
X625Y47D01*
X633Y47D02*
X639Y47D01*
X647Y47D02*
X654Y47D01*
X0Y46D02*
X7Y46D01*
X455Y46D02*
X461Y46D01*
X505Y46D02*
X511Y46D01*
X562Y46D02*
X568Y46D01*
X576Y46D02*
X583Y46D01*
X619Y46D02*
X625Y46D01*
X633Y46D02*
X639Y46D01*
X647Y46D02*
X654Y46D01*
X0Y45D02*
X7Y45D01*
X455Y45D02*
X461Y45D01*
X505Y45D02*
X511Y45D01*
X562Y45D02*
X568Y45D01*
X575Y45D02*
X582Y45D01*
X619Y45D02*
X625Y45D01*
X633Y45D02*
X639Y45D01*
X647Y45D02*
X654Y45D01*
X0Y44D02*
X7Y44D01*
X455Y44D02*
X461Y44D01*
X505Y44D02*
X511Y44D01*
X562Y44D02*
X568Y44D01*
X575Y44D02*
X582Y44D01*
X619Y44D02*
X625Y44D01*
X633Y44D02*
X639Y44D01*
X647Y44D02*
X654Y44D01*
X0Y43D02*
X7Y43D01*
X455Y43D02*
X461Y43D01*
X505Y43D02*
X511Y43D01*
X562Y43D02*
X568Y43D01*
X574Y43D02*
X581Y43D01*
X619Y43D02*
X625Y43D01*
X633Y43D02*
X639Y43D01*
X647Y43D02*
X654Y43D01*
X0Y42D02*
X7Y42D01*
X455Y42D02*
X485Y42D01*
X505Y42D02*
X535Y42D01*
X559Y42D02*
X581Y42D01*
X609Y42D02*
X639Y42D01*
X647Y42D02*
X654Y42D01*
X0Y41D02*
X7Y41D01*
X455Y41D02*
X487Y41D01*
X505Y41D02*
X537Y41D01*
X556Y41D02*
X580Y41D01*
X607Y41D02*
X639Y41D01*
X647Y41D02*
X654Y41D01*
X0Y40D02*
X7Y40D01*
X455Y40D02*
X488Y40D01*
X505Y40D02*
X538Y40D01*
X556Y40D02*
X580Y40D01*
X606Y40D02*
X639Y40D01*
X647Y40D02*
X654Y40D01*
X0Y39D02*
X7Y39D01*
X455Y39D02*
X488Y39D01*
X505Y39D02*
X539Y39D01*
X555Y39D02*
X579Y39D01*
X605Y39D02*
X639Y39D01*
X647Y39D02*
X654Y39D01*
X0Y38D02*
X7Y38D01*
X455Y38D02*
X488Y38D01*
X505Y38D02*
X539Y38D01*
X555Y38D02*
X578Y38D01*
X606Y38D02*
X639Y38D01*
X647Y38D02*
X654Y38D01*
X0Y37D02*
X7Y37D01*
X455Y37D02*
X488Y37D01*
X505Y37D02*
X538Y37D01*
X556Y37D02*
X577Y37D01*
X606Y37D02*
X639Y37D01*
X647Y37D02*
X654Y37D01*
X0Y36D02*
X7Y36D01*
X455Y36D02*
X487Y36D01*
X505Y36D02*
X537Y36D01*
X556Y36D02*
X575Y36D01*
X607Y36D02*
X638Y36D01*
X647Y36D02*
X654Y36D01*
X0Y35D02*
X7Y35D01*
X455Y35D02*
X485Y35D01*
X506Y35D02*
X535Y35D01*
X559Y35D02*
X570Y35D01*
X609Y35D02*
X635Y35D01*
X647Y35D02*
X654Y35D01*
X0Y34D02*
X7Y34D01*
X647Y34D02*
X654Y34D01*
X0Y33D02*
X7Y33D01*
X647Y33D02*
X654Y33D01*
X0Y32D02*
X7Y32D01*
X647Y32D02*
X654Y32D01*
X0Y31D02*
X7Y31D01*
X647Y31D02*
X654Y31D01*
X0Y30D02*
X7Y30D01*
X647Y30D02*
X654Y30D01*
X0Y29D02*
X7Y29D01*
X647Y29D02*
X654Y29D01*
X0Y28D02*
X7Y28D01*
X647Y28D02*
X654Y28D01*
X0Y27D02*
X7Y27D01*
X647Y27D02*
X654Y27D01*
X0Y26D02*
X7Y26D01*
X647Y26D02*
X654Y26D01*
X0Y25D02*
X7Y25D01*
X647Y25D02*
X654Y25D01*
X0Y24D02*
X7Y24D01*
X647Y24D02*
X654Y24D01*
X0Y23D02*
X7Y23D01*
X647Y23D02*
X654Y23D01*
X0Y22D02*
X7Y22D01*
X647Y22D02*
X654Y22D01*
X0Y21D02*
X7Y21D01*
X647Y21D02*
X654Y21D01*
X0Y20D02*
X7Y20D01*
X647Y20D02*
X654Y20D01*
X0Y19D02*
X7Y19D01*
X647Y19D02*
X654Y19D01*
X0Y18D02*
X7Y18D01*
X647Y18D02*
X654Y18D01*
X0Y17D02*
X7Y17D01*
X647Y17D02*
X654Y17D01*
X0Y16D02*
X7Y16D01*
X647Y16D02*
X654Y16D01*
X0Y15D02*
X7Y15D01*
X647Y15D02*
X654Y15D01*
X0Y14D02*
X7Y14D01*
X647Y14D02*
X654Y14D01*
X0Y13D02*
X7Y13D01*
X647Y13D02*
X654Y13D01*
X0Y12D02*
X7Y12D01*
X647Y12D02*
X654Y12D01*
X0Y11D02*
X7Y11D01*
X647Y11D02*
X654Y11D01*
X0Y10D02*
X7Y10D01*
X647Y10D02*
X654Y10D01*
X0Y9D02*
X7Y9D01*
X647Y9D02*
X654Y9D01*
X0Y8D02*
X654Y8D01*
X0Y7D02*
X654Y7D01*
X0Y6D02*
X654Y6D01*
X0Y5D02*
X654Y5D01*
X0Y4D02*
X654Y4D01*
X0Y3D02*
X654Y3D01*
X0Y2D02*
X654Y2D01*
X0Y1D02*
X654Y1D01*
D02*
G04 End of Silk1*
M02*